<svg xmlns="http://www.w3.org/2000/svg" xmlns:xlink="http://www.w3.org/1999/xlink" viewBox="0 0 600 226.8422"><defs><style>.cls-1{isolation:isolate;}.cls-2{fill:#1d2087;}.cls-3{fill:url(#名称未設定グラデーション_14);}.cls-4{fill:url(#名称未設定グラデーション_15);}.cls-5{fill:url(#名称未設定グラデーション_14-2);}.cls-6{fill:url(#名称未設定グラデーション_15-2);}.cls-7{fill:url(#名称未設定グラデーション_14-3);}.cls-8{fill:url(#名称未設定グラデーション_15-3);}.cls-9{fill:url(#名称未設定グラデーション_14-4);}.cls-10{fill:url(#名称未設定グラデーション_15-4);}.cls-11{fill:url(#名称未設定グラデーション_14-5);}.cls-12{fill:url(#名称未設定グラデーション_15-5);}.cls-13{fill:url(#名称未設定グラデーション_14-6);}.cls-14{fill:url(#名称未設定グラデーション_15-6);}.cls-15{mix-blend-mode:multiply;}.cls-16{fill:#666;}.cls-17{fill:url(#名称未設定グラデーション_80);}.cls-18{fill:url(#名称未設定グラデーション_469);}.cls-19{fill:url(#名称未設定グラデーション_469-2);}.cls-20{fill:url(#名称未設定グラデーション_469-3);}.cls-21{fill:url(#名称未設定グラデーション_469-4);}.cls-22{fill:url(#名称未設定グラデーション_469-5);}.cls-23{fill:url(#名称未設定グラデーション_51);}.cls-24{fill:url(#名称未設定グラデーション_51-2);}.cls-25{fill:url(#名称未設定グラデーション_51-3);}.cls-26{fill:url(#名称未設定グラデーション_51-4);}.cls-27{fill:url(#名称未設定グラデーション_51-5);}</style><linearGradient id="名称未設定グラデーション_14" x1="352.98434" y1="180.3663" x2="352.98434" y2="197.14645" gradientUnits="userSpaceOnUse"><stop offset="0" stop-color="#eb9b14"/><stop offset="0.03259" stop-color="#edab18"/><stop offset="0.12879" stop-color="#f1d623"/><stop offset="0.17778" stop-color="#f3e727"/><stop offset="0.23012" stop-color="#f3df22"/><stop offset="0.3116" stop-color="#f4c916"/><stop offset="0.39662" stop-color="#f5ab05"/><stop offset="0.73053" stop-color="#f3e727"/><stop offset="0.75403" stop-color="#f3e82f"/><stop offset="0.79067" stop-color="#f5ea45"/><stop offset="0.83585" stop-color="#f7ee69"/><stop offset="0.88782" stop-color="#f9f49b"/><stop offset="0.94479" stop-color="#fdfbdb"/><stop offset="0.97468" stop-color="#fff"/></linearGradient><linearGradient id="名称未設定グラデーション_15" x1="352.98436" y1="197.33214" x2="352.98436" y2="180.48847" gradientUnits="userSpaceOnUse"><stop offset="0" stop-color="#eb9b14"/><stop offset="0.04167" stop-color="#f0b117"/><stop offset="0.13185" stop-color="#fbdc1c"/><stop offset="0.17778" stop-color="#ffed1e"/><stop offset="0.2267" stop-color="#fee51b"/><stop offset="0.30284" stop-color="#facf13"/><stop offset="0.39629" stop-color="#f5ab05"/><stop offset="0.39662" stop-color="#f5ab05"/><stop offset="0.65652" stop-color="#fff078"/><stop offset="0.6752" stop-color="#fff180"/><stop offset="0.70429" stop-color="#fff396"/><stop offset="0.74016" stop-color="#fff7ba"/><stop offset="0.78106" stop-color="#fffdec"/><stop offset="0.79548" stop-color="#fff"/></linearGradient><linearGradient id="名称未設定グラデーション_14-2" x1="472.90757" y1="180.3663" x2="472.90757" y2="197.14645" xlink:href="#名称未設定グラデーション_14"/><linearGradient id="名称未設定グラデーション_15-2" x1="472.9075" y1="197.33214" x2="472.9075" y2="180.48847" xlink:href="#名称未設定グラデーション_15"/><linearGradient id="名称未設定グラデーション_14-3" x1="289.70211" y1="161.97743" x2="289.70211" y2="214.87273" xlink:href="#名称未設定グラデーション_14"/><linearGradient id="名称未設定グラデーション_15-3" x1="289.70214" y1="215.45808" x2="289.70214" y2="162.36253" xlink:href="#名称未設定グラデーション_15"/><linearGradient id="名称未設定グラデーション_14-4" x1="217.80512" y1="161.97743" x2="217.80512" y2="214.87273" xlink:href="#名称未設定グラデーション_14"/><linearGradient id="名称未設定グラデーション_15-4" x1="217.80511" y1="215.45808" x2="217.80511" y2="162.36253" xlink:href="#名称未設定グラデーション_15"/><linearGradient id="名称未設定グラデーション_14-5" x1="412.97936" y1="161.97743" x2="412.97936" y2="214.87273" xlink:href="#名称未設定グラデーション_14"/><linearGradient id="名称未設定グラデーション_15-5" x1="412.97936" y1="215.45808" x2="412.97936" y2="162.36253" xlink:href="#名称未設定グラデーション_15"/><linearGradient id="名称未設定グラデーション_14-6" x1="138.58614" y1="161.97743" x2="138.58614" y2="214.87273" xlink:href="#名称未設定グラデーション_14"/><linearGradient id="名称未設定グラデーション_15-6" x1="138.5861" y1="215.45808" x2="138.5861" y2="162.36253" xlink:href="#名称未設定グラデーション_15"/><linearGradient id="名称未設定グラデーション_80" x1="254.71941" y1="176.88998" x2="341.80944" y2="176.88998" gradientUnits="userSpaceOnUse"><stop offset="0.3" stop-color="#bf0006"/><stop offset="0.9" stop-color="#ff7926"/></linearGradient><linearGradient id="名称未設定グラデーション_469" x1="1339.94304" y1="-1198.92056" x2="1339.94304" y2="-1078.74064" gradientTransform="translate(-1271.08517 1204.20841)" gradientUnits="userSpaceOnUse"><stop offset="0" stop-color="#eb9b14"/><stop offset="0.03259" stop-color="#edab18"/><stop offset="0.12879" stop-color="#f1d623"/><stop offset="0.17778" stop-color="#f3e727"/><stop offset="0.19369" stop-color="#f3e82f"/><stop offset="0.21848" stop-color="#f5ea45"/><stop offset="0.24905" stop-color="#f7ee69"/><stop offset="0.28422" stop-color="#f9f49b"/><stop offset="0.32277" stop-color="#fdfbdb"/><stop offset="0.343" stop-color="#fff"/><stop offset="0.35244" stop-color="#fffefc"/><stop offset="0.35957" stop-color="#fefbf2"/><stop offset="0.36594" stop-color="#fef5e2"/><stop offset="0.37187" stop-color="#fdeecb"/><stop offset="0.37749" stop-color="#fce4ae"/><stop offset="0.38289" stop-color="#fad789"/><stop offset="0.3881" stop-color="#f9c95e"/><stop offset="0.39304" stop-color="#f7b92d"/><stop offset="0.39662" stop-color="#f5ab05"/><stop offset="0.73053" stop-color="#f3e727"/><stop offset="0.75403" stop-color="#f3e82f"/><stop offset="0.79067" stop-color="#f5ea45"/><stop offset="0.83585" stop-color="#f7ee69"/><stop offset="0.88782" stop-color="#f9f49b"/><stop offset="0.94479" stop-color="#fdfbdb"/><stop offset="0.97468" stop-color="#fff"/></linearGradient><linearGradient id="名称未設定グラデーション_469-2" x1="1470.43801" y1="-1198.92056" x2="1470.43801" y2="-1078.74064" xlink:href="#名称未設定グラデーション_469"/><linearGradient id="名称未設定グラデーション_469-3" x1="1582.39301" y1="-1198.92056" x2="1582.39301" y2="-1078.74064" xlink:href="#名称未設定グラデーション_469"/><linearGradient id="名称未設定グラデーション_469-4" x1="1682.33582" y1="-1198.92056" x2="1682.33582" y2="-1078.74064" xlink:href="#名称未設定グラデーション_469"/><linearGradient id="名称未設定グラデーション_469-5" x1="1799.57298" y1="-1198.92056" x2="1799.57298" y2="-1078.74064" xlink:href="#名称未設定グラデーション_469"/><linearGradient id="名称未設定グラデーション_51" x1="68.85782" y1="125.20607" x2="68.85782" y2="7.75441" gradientUnits="userSpaceOnUse"><stop offset="0" stop-color="#eb9b14"/><stop offset="0.04167" stop-color="#f0b117"/><stop offset="0.13185" stop-color="#fbdc1c"/><stop offset="0.17778" stop-color="#ffed1e"/><stop offset="0.19323" stop-color="#ffee26"/><stop offset="0.21732" stop-color="#ffef3c"/><stop offset="0.24703" stop-color="#fff260"/><stop offset="0.2812" stop-color="#fff692"/><stop offset="0.31863" stop-color="#fffbd2"/><stop offset="0.343" stop-color="#fff"/><stop offset="0.35244" stop-color="#fffefc"/><stop offset="0.35957" stop-color="#fefbf2"/><stop offset="0.36594" stop-color="#fef5e2"/><stop offset="0.37187" stop-color="#fdeecb"/><stop offset="0.37749" stop-color="#fce4ae"/><stop offset="0.38289" stop-color="#fad789"/><stop offset="0.3881" stop-color="#f9c95e"/><stop offset="0.39304" stop-color="#f7b92d"/><stop offset="0.39662" stop-color="#f5ab05"/><stop offset="0.65652" stop-color="#fff078"/><stop offset="0.6752" stop-color="#fff180"/><stop offset="0.70429" stop-color="#fff396"/><stop offset="0.74016" stop-color="#fff7ba"/><stop offset="0.78106" stop-color="#fffdec"/><stop offset="0.79548" stop-color="#fff"/></linearGradient><linearGradient id="名称未設定グラデーション_51-2" x1="199.35284" y1="125.20606" x2="199.35284" y2="7.7544" xlink:href="#名称未設定グラデーション_51"/><linearGradient id="名称未設定グラデーション_51-3" x1="311.30779" y1="125.20607" x2="311.30779" y2="7.75441" xlink:href="#名称未設定グラデーション_51"/><linearGradient id="名称未設定グラデーション_51-4" x1="411.25065" y1="125.20607" x2="411.25065" y2="7.75442" xlink:href="#名称未設定グラデーション_51"/><linearGradient id="名称未設定グラデーション_51-5" x1="528.48779" y1="126.7977" x2="528.48779" y2="6.1628" xlink:href="#名称未設定グラデーション_51"/></defs><g class="cls-1"><g id="レイヤー_2" data-name="レイヤー 2"><g id="レイヤー_1-2" data-name="レイヤー 1"><path class="cls-2" d="M509.067,177.06523a9.2434,9.2434,0,0,0-7.38274-3.68113H456.67607l1.81624-6.33335a9.24433,9.24433,0,0,0-8.88592-11.79261h-53.748a9.24384,9.24384,0,0,0-8.88591,6.69615L383.6363,173.588a9.22038,9.22038,0,0,0-1.87533-.20385H350.21612c.46531-.66532.94771-1.32995,1.397-2.0322,1.94059-3.03305,3.68331-9.17411-1.307-13.56089a9.66536,9.66536,0,0,0-6.35935-2.53287,9.22407,9.22407,0,0,0-5.57467,1.87149c-8.47,6.407-16.08194,7.29017-23.04635,7.29017-3.03,0-6.082-.19184-9.31213-.3951-.62928-.03949-1.26634-.07839-1.90349-.117a9.23995,9.23995,0,0,0-9.223-8.64957H278.04336a9.24029,9.24029,0,0,0-8.88671,6.69615l-2.81392,9.813q-2.04635,1.35015-4.11867,3.00527l2.21429-7.7218a9.24528,9.24528,0,0,0-8.88671-11.79261H199.28415a9.24479,9.24479,0,0,0-8.88671,6.69615L185.014,180.72755a9.21836,9.21836,0,0,0-1.8772-.20415h-8.79925a9.27066,9.27066,0,0,0-1.8317.18239,9.26128,9.26128,0,0,0-1.45827-.1749l3.86508-13.48014a9.24432,9.24432,0,0,0-8.88591-11.79261H147.434a9.24434,9.24434,0,0,0-3.64135.74725l-36.3638,15.58246h-4.28342a9.24467,9.24467,0,0,0-8.8867,6.69655l-4.82939,16.84337A9.24477,9.24477,0,0,0,98.31605,206.92H110.3005l-2.33119,8.1296a9.24433,9.24433,0,0,0,8.88592,11.79261H133.699a9.23611,9.23611,0,0,0,6.17106-2.36112,9.24605,9.24605,0,0,0,6.0655,2.26776H175.1829a9.21639,9.21639,0,0,0,4.5051-1.17859,9.22636,9.22636,0,0,0,4.65025,1.272h55.98782a9.24478,9.24478,0,0,0,8.8867-6.69615l4.63844-16.17549a9.26879,9.26879,0,0,0,3.01217.51228c.033,0,.06588-.00305.09877-.00335l-3.03107,10.5701A9.24433,9.24433,0,0,0,262.817,226.8422h53.22017a9.24469,9.24469,0,0,0,8.88671-6.69654l3.28179-11.44587c.09454.00286.18741.01645.28234.01645h45.07433l-1.81624,6.33335A9.24432,9.24432,0,0,0,380.632,226.8422H434.38a9.24386,9.24386,0,0,0,8.88592-6.69615l3.333-11.62244a9.21581,9.21581,0,0,0,1.8123.19263H496.854a9.24387,9.24387,0,0,0,8.88592-6.69615l4.83017-16.84338A9.24312,9.24312,0,0,0,509.067,177.06523Z"/><path class="cls-3" d="M326.348,197.33214l4.82992-16.84368h48.44278l-4.82993,16.84368Z"/><path class="cls-4" d="M376.78091,182.62839l-3.60254,12.56381H329.1878l3.60254-12.56381h43.99057m2.83973-2.13992H331.17786l-4.82979,16.84367h48.44279l4.82978-16.84367Z"/><path class="cls-5" d="M446.27122,197.33214l4.82992-16.84368h48.44278L494.714,197.33214Z"/><path class="cls-6" d="M496.70416,182.62839l-3.60274,12.56381H449.11085l3.60274-12.56381h43.99057m2.83973-2.13992H451.1011l-4.83,16.84367h48.44279l4.83-16.84367Z"/><path class="cls-7" d="M318.72682,198.6144,313.897,215.45808h-53.2196l15.22592-53.09556H292.747L282.3513,198.6144Z"/><path class="cls-8" d="M289.90727,164.50244l-9.61289,33.5221-.78271,2.7298h36.37542l-3.60254,12.56382H263.51738l13.99853-48.81572h12.39136m2.83972-2.13991H275.90342l-15.226,53.09555H313.897l4.82978-16.84368H282.3514L292.747,162.36253Z"/><path class="cls-9" d="M253.41158,162.36252l-15.22579,53.09556H182.19866l4.82981-16.84368H226.1722l10.3957-36.25188Zm-41.839,0H197.14427l-7.5861,26.45433h14.40158Zm10.3749,26.45433,7.61283-26.45433H215.132l-7.5861,26.45433Z"/><path class="cls-10" d="M250.79907,164.33106l-14.09662,49.15848H184.811l3.701-12.9066h39.14346l.40908-1.42589,9.98671-34.826h12.74785m-23.85367,0-6.47989,22.51725H210.15835l6.45684-22.51725H226.9454m-17.9879,0-6.47969,22.51725H192.17065l6.45684-22.51725h10.33m44.454-1.96853H236.56793L226.17214,198.6144H187.02849l-4.82978,16.84368h55.987l15.22577-53.09555Zm-23.85111,0H215.13191l-7.586,26.45432h14.4015l7.613-26.45432Zm-17.9879,0H197.14421l-7.586,26.45432h14.4015l7.61279-26.45432Z"/><path class="cls-11" d="M445.35368,162.36252H393.71824l-15.22593,53.09556h53.74816l15.22593-53.09556ZM400.16607,198.6144l5.56562-19.4082H425.7925L420.227,198.6144Z"/><path class="cls-12" d="M444.62653,164.50245,430.628,213.31816H381.3322l13.99853-48.81571h49.2958M397.3261,200.75432h24.51348l.44453-1.55,5.56542-19.40819.7827-2.72979H404.11915l-.44453,1.55L398.109,198.02452l-.7829,2.7298m50.14036-38.39179H393.71824l-15.226,53.09555h53.74822l15.226-53.09555ZM400.166,198.6144l5.56562-19.4082h20.06087l-5.56542,19.4082Z"/><path class="cls-13" d="M163.88685,162.36252,159.0569,179.2062H148.75112l-7.74826,3.32018-9.44359,32.9317H114.71559l7.084-24.7029-11.15675,4.78074H96.17576l4.82994-16.84368h6.18041l38.10827-16.32972ZM180.99652,187.628l-7.9538,27.73659H143.7956l2.523-8.799h20.4483l5.43061-18.93762Zm-21.85628,0H151.603l-3.96291,13.81948h7.52324ZM164.56,201.44752l3.97687-13.81948h-7.53721l-3.9629,13.81948Z"/><path class="cls-14" d="M161.04709,164.50244l-3.60274,12.56385h-9.13251l-.40356.173L140.16,180.55943l-.93417.40026-.28007.97683-8.999,31.38164H117.55561l6.30105-21.9731,1.24221-4.3317-4.142,1.77487L110.2036,193.396H99.01545l3.60274-12.56384h5.007l.40357-.173,37.70488-16.15676h15.31341M178.15676,189.768l-6.72648,23.45675H146.63535l1.29578-4.51913h20.44828l.44453-1.55,4.98617-17.38759h4.34665m-12.46247,0-2.74518,9.53963h-3.07253l2.73553-9.53963h3.08218m-9.39662,0-2.74519,9.53963H150.48l2.73554-9.53963h3.08218m7.58915-27.40543H145.29446L107.186,178.69224H101.0057l-4.83,16.84368h14.46709l11.15683-4.78074-7.084,24.7029h16.84357l9.44351-32.93169,7.74829-3.32019h10.30578l4.83-16.84367ZM180.99648,187.628h-8.79886l-5.4307,18.93762H146.31864l-2.523,8.799h29.24714l7.95372-27.73658Zm-12.4597,0h-7.53716l-3.963,13.81947H164.56l3.97676-13.81947Zm-9.39663,0H151.603l-3.96278,13.81947h7.52317l3.97676-13.81947Z"/><g class="cls-15"><path class="cls-16" d="M254.71941,193.09813c30.71945-39.69752,56.01851-5.55244,87.09-29.05491C307.69012,214.634,290.73493,170.06766,254.71941,193.09813Z"/></g><path class="cls-17" d="M254.71941,191.41743c30.71945-39.69752,56.01851-5.55244,87.09-29.05491C307.69012,212.95325,290.73493,168.387,254.71941,191.41743Z"/><path class="cls-2" d="M588.715,19.64923C581.75765,10.68532,568.30705,0,543.741,0c-.6212,0-2.66167.0001-3.08159.0001-27.34966,0-47.01789,8.435-60.08669,26.10814a34.83324,34.83324,0,0,0-4.67241-8.05673C467.65015,7.4371,453.46057,1.59141,435.944,1.59141l-54.63629.0001a6.13623,6.13623,0,0,0-4.1233,1.60963,9.234,9.234,0,0,0-5.19317-1.60973l-88.35062.0001a6.16156,6.16156,0,0,0-5.6119,3.62273c-.01251-.01644-.02226-.03446-.03486-.05081a9.24388,9.24388,0,0,0-7.29924-3.572L230.27,1.59112A6.16341,6.16341,0,0,0,224.30058,6.222l-11.964,46.615H200.21548L210.406,13.13389a9.24491,9.24491,0,0,0-8.95446-11.54248h-3.07647L198.37,1.59112H161.02693a6.16278,6.16278,0,0,0-5.97174,4.6411L141.6427,58.85827c-.11561-.17135-.22423-.34645-.35206-.51091a9.24381,9.24381,0,0,0-6.4405-3.52986l1.57408-6.2266a9.24377,9.24377,0,0,0-8.96233-11.51057H104.27373l17.21406-19.82295a9.24453,9.24453,0,0,0-6.98016-15.30554l-29.84176.0001a6.14819,6.14819,0,0,0-3.10405.84347,9.23806,9.23806,0,0,0-4.54931-1.204l-40.27335.0001a6.16243,6.16243,0,0,0-5.97174,4.64071L.83309,123.684c-.24787.97179-2.055,5.0636.58687,9.28421A9.73018,9.73018,0,0,0,9.88632,137.532H47.07813a9.24538,9.24538,0,0,0,8.95844-6.96125l19.227-75.44206q.455.04491.91782.0453h6.137A6.15759,6.15759,0,0,0,78.494,59.42206L76.19592,68.462c-1.58894,5.09592.13167,8.18416,1.75725,10.27476a9.2355,9.2355,0,0,0,1.93176,1.84667l-5.9808,23.50535a29.37885,29.37885,0,0,0-1.01728,9.2041,21.25272,21.25272,0,0,0,4.17293,14.7123c7.30474,9.4311,21.3533,9.4311,25.97,9.4311a96.26257,96.26257,0,0,0,16.37265-1.37594,9.23989,9.23989,0,0,0,6.32449-4.03447,9.19977,9.19977,0,0,0,8.4473,5.50613h37.34307a9.24363,9.24363,0,0,0,8.95918-6.96637l11.986-47.144h12.13788l-10.238,40.266c-.94923,4.19391-.761,7.62.88275,9.8722,2.82247,3.86729,6.83347,3.97221,9.37984,3.97221h36.1346a9.24265,9.24265,0,0,0,8.01763-4.65144,9.11666,9.11666,0,0,0,8.01074,4.65144h85.26825a9.23389,9.23389,0,0,0,6.20986-2.39766,9.2313,9.2313,0,0,0,6.189,2.39766H390.2854a9.24349,9.24349,0,0,0,8.956-6.95456l5.3596-20.9649,3.64843,20.30943a9.24413,9.24413,0,0,0,9.09863,7.61h37.94812a9.245,9.245,0,0,0,9.05058-11.12965l-8.44-40.51723a56.1777,56.1777,0,0,0,7.24388-4.3693c.00158.10774.00276.21567.00493.32321-.31533,14.70619,3.50347,27.69433,11.28091,37.71394,6.92974,8.92806,20.30313,19.57044,44.66121,19.57044,21.4762,0,38.20889-4.98774,51.15449-15.24881,12.70688-10.07121,21.45414-25.00449,26.74126-45.65348C602.94235,54.992,600.00218,34.19057,588.715,19.64923ZM424.22662,32.33484h4.91369c.07839,0,.14909.00138.22118.00256a72.074,72.074,0,0,1-2.00916,10.78528C423.6586,57.297,419.74486,61.038,416.64239,62.02731Zm116.506,32.632c-9.84844,38.87608-13.2558,43.008-21.31253,43.3799a9.77017,9.77017,0,0,1-2.35659-.33345c-.84219-1.84785-1.64656-8.95485,5.25087-36.18142,4.59777-18.152,8.18239-30.63983,11.83949-36.80261,2.139-3.60511,3.42233-4.28618,8.07524-4.28618a12.92455,12.92455,0,0,1,3.82806.388,7.04479,7.04479,0,0,1,.492,2.3239C546.31,40.08018,544.36947,50.61128,540.73266,64.9668Zm-180.807-8.57443a9.24529,9.24529,0,0,0-7.28663-3.55508h-29.8193l5.24694-20.50245h40.61669l-7.04821,27.65475A9.23036,9.23036,0,0,0,359.92564,56.39237ZM356.4264,80.42685l-6.98006,27.38747a9.23359,9.23359,0,0,0-4.21528-1.02575H309.06895l5.99222-23.367h34.55416A9.23933,9.23933,0,0,0,356.4264,80.42685ZM121.03321,109.18121l6.8415-26.8748h3.82018a9.21485,9.21485,0,0,0,4.23517-1.03363L127.80794,113.141a9.1125,9.1125,0,0,0-6.77473-3.95982Z"/><path class="cls-18" d="M36.73932,7.75441h37.192L43.99643,125.20608H6.80445Zm47.92656.36053h26.76033L81.26414,42.8483H73.0998Zm-.1988,52.82564h6.77351l4.47465-17.69743H124.38l-4.47465,17.69743h11.006l-2.29807,9.04h-11.006l-9.91807,38.9603c-1.45079,5.7294-.24141,6.87528,4.59614,6.87528a47.7978,47.7978,0,0,0,4.83833-.50924l-2.17737,8.53039a87.15983,87.15983,0,0,1-14.99781,1.27329c-13.18333,0-24.1893-3.565-20.07754-19.48L88.94252,69.9806H82.169Z"/><path class="cls-19" d="M214.09307,71.09571h-31.9L168.4354,125.20608H131.09274L161.02682,7.75441h37.34345L185.21691,59.00027h31.9L230.27029,7.75441H267.613L237.67808,125.20608H200.33542Z"/><path class="cls-20" d="M283.64027,7.75441h85.26921l-3.17532,12.2544H317.80839l-9.978,38.99146h41.72737l-3.02386,12.09544H304.8065l-10.7338,41.856h48.07645l-3.17454,12.2544H253.70619Z"/><path class="cls-21" d="M406.40519,81.44019h-8.01288l-11.1882,43.76589H351.37378L381.30786,7.75441h51.55472c24.34077,0,43.99467,13.20937,36.73757,41.697-3.77963,14.3233-14.05981,23.07655-27.36384,27.851l9.978,47.90368H414.26659Zm7.25631-12.89105c8.92011,0,14.96783-5.88836,19.6547-23.87216,4.989-19.89373,1.663-24.66817-7.25711-24.66817H413.96444L401.56685,68.54914Z"/><path class="cls-22" d="M472.02129,60.1142C481.39423,23.51,502.40978,6.1628,540.65967,6.1628c38.552,0,53.67055,30.07924,44.29682,66.68349-9.37294,36.60424-30.3877,53.9514-68.94053,53.9514C477.76607,126.79769,462.64756,96.71845,472.02129,60.1142Zm74.68531,6.366c10.281-40.58267,7.10564-48.063-7.55926-48.063-14.51342,0-18.596,7.48036-28.87616,48.063-10.281,40.58307-7.10564,48.063,7.40779,48.063C532.34386,114.54328,536.42642,107.06331,546.7066,66.48024Z"/><path class="cls-23" d="M69.966,10.8359,41.60181,122.12459H10.76975L39.13394,10.8359H69.966m34.70306.36052L79.85876,39.76681h-2.485l9.51382-28.57039h17.78149m15.75322,35.12821-3.50446,13.86061-.97021,3.83683h11.00084l-.7315,2.877H115.21178l-.59088,2.3213-9.919,38.96408c-.75415,2.97869-1.2107,6.04533.54084,8.29573,1.65365,2.12457,4.362,2.41744,7.0426,2.41744.244,0,.494-.00714.74646-.01982l-.56388,2.20943a77.4081,77.4081,0,0,1-12.51958.94185c-8.37521,0-13.83407-1.5654-16.22513-4.65272-1.84313-2.37983-2.13541-6.07232-.866-10.98585l9.07145-35.65.9775-3.84139H86.13185l.7315-2.877h6.7765l.58812-2.32613,3.88655-15.37131h22.30776M73.93134,7.75441h-37.192L6.80442,125.20607h37.192L73.93134,7.75441Zm37.49492.36052H84.66589L73.09979,42.84829h8.16426L111.42626,8.11493Zm12.95367,35.12822H95.71519L91.24052,60.94059H84.46717l-2.2981,9.04h6.77335L79.871,105.63067c-4.11187,15.91491,6.89409,19.47994,20.07742,19.47994a87.15859,87.15859,0,0,0,14.99789-1.27327l2.17736-8.53039a47.796,47.796,0,0,1-4.83825.50923c-4.83766,0-6.047-1.14587-4.59619-6.87527l9.918-38.96031h11.006l2.2981-9.04h-11.006l4.47467-17.69744Z"/><path class="cls-24" d="M263.64752,10.83588l-28.364,111.2887h-30.9851L217.07957,71.855l.97651-3.8408H179.79716l-.59047,2.32216-13.16737,51.78819H135.05816l28.3632-111.2887H194.398L182.23215,58.23419l-.98755,3.84758h38.26286l.59422-2.31539,12.55917-48.9305h30.98667m3.96534-3.08148H230.27038L217.117,59.00029H185.21683L198.37022,7.7544H161.02676L131.09282,125.20606H168.4353l13.75785-54.11035h31.9l-13.75765,54.11035h37.34267L267.61286,7.7544Z"/><path class="cls-25" d="M364.92779,10.8359l-1.57842,6.09142H315.41612l-.593,2.31753-9.978,38.99147-.984,3.84544h41.75l-1.48308,5.93247H302.41537l-.59382,2.316-10.73377,41.856-.98656,3.84694h48.0664l-1.578,6.09144H257.67145L286.03485,10.8359h78.89294m3.98168-3.08149H283.64024L253.70611,125.20607h85.26844l3.17456-12.25441H294.07267l10.73376-41.85594H346.534l3.02369-12.09544H307.83032l9.978-38.99148h47.92577l3.17534-12.25439Z"/><path class="cls-26" d="M432.86263,10.83592c13.42972,0,24.44573,4.26381,30.22366,11.69817,5.09292,6.553,6.27978,15.35338,3.5342,26.13109-3.213,12.17631-11.7672,20.83544-25.4252,25.73683l-2.52223.90521.54636,2.62356,9.20538,44.1938H416.84391l-7.40578-41.22919-.45557-2.53671h-12.983L395.4069,80.677l-10.5957,41.44762H355.33913l28.3634-111.28866h49.1601m-35.2632,60.79472h16.06205c11.08514,0,17.855-7.8285,22.64376-26.2041,3.24566-12.94285,3.21887-20.27452-.08961-24.51525-2.786-3.571-7.13083-3.984-10.15649-3.984H411.571l-.59226,2.31894L398.58126,67.78659l-.98183,3.844m35.2632-63.87622H381.30792L351.37379,125.20607H387.204l11.18835-43.7659h8.0128l7.86135,43.7659h37.94773l-9.978-47.90367c13.30406-4.77443,23.58424-13.52769,27.36384-27.851,7.25728-28.48764-12.39667-41.697-36.73742-41.697Zm-31.2957,60.79472L413.9644,20.00881h12.09474c8.92,0,12.246,4.77444,7.25708,24.66817-4.68679,17.98379-10.73455,23.87216-19.65474,23.87216Z"/><path class="cls-27" d="M540.65962,9.2443c15.496,0,27.68075,5.14576,35.2372,14.881,8.9003,11.46667,11.05757,28.49794,6.07436,47.95658-4.59422,17.94225-11.93994,30.71618-22.45666,39.05174-10.68216,8.46676-24.91074,12.58254-43.49857,12.58254-15.33134,0-27.40816-5.11857-34.92463-14.8024-8.91507-11.48576-11.07608-28.545-6.08479-48.03521,9.14393-35.70969,29.3921-51.63428,65.65309-51.63428M517.67906,117.62479c17.3596,0,21.83427-10.19838,32.01459-50.38781,7.15289-28.23484,7.91807-40.51643,2.92422-46.93318-3.42686-4.40341-8.999-4.9681-13.47049-4.9681-17.22311,0-21.68281,10.19838-31.86332,50.3878-7.16058,28.26517-7.93029,40.5552-2.94136,46.96547,3.4046,4.37481,8.91566,4.93582,13.33636,4.93582M540.65962,6.1628c-38.24986,0-59.26538,17.34715-68.63837,53.95139-9.37378,36.60426,5.74484,66.68351,43.9947,66.68351,38.55278,0,59.56751-17.34716,68.94051-53.9514,9.37378-36.60426-5.74465-66.6835-44.29684-66.6835ZM517.67906,114.54329c-14.51357,0-17.68892-7.48-7.408-48.06305,10.28017-40.58268,14.3629-48.063,28.87627-48.063,14.66484,0,17.84018,7.48036,7.55922,48.063-10.28018,40.58309-14.36271,48.06305-29.02754,48.06305Z"/></g></g></g></svg>